<mxfile host="app.diagrams.net"><diagram name="hierarchy"><mxGraphModel><root><mxCell id="0" /><mxCell id="1" parent="0" /><mxCell id="acc" value="GA4 Account" style="rounded=1;whiteSpace=wrap;html=1;" vertex="1" parent="1"><mxGeometry x="100" y="20" width="120" height="60" as="geometry" /></mxCell><mxCell id="p0" value="Property: STHDF" style="rounded=1;whiteSpace=wrap;html=1;" vertex="1" parent="1"><mxGeometry x="100" y="120" width="120" height="60" as="geometry" /></mxCell><mxCell id="s0" value="Stream: STHDF Web" style="rounded=1;whiteSpace=wrap;html=1;" vertex="1" parent="1"><mxGeometry x="300" y="120" width="120" height="60" as="geometry" /></mxCell><mxCell id="g0" value="GTM Container: STHDF" style="rounded=1;whiteSpace=wrap;html=1;" vertex="1" parent="1"><mxGeometry x="500" y="120" width="120" height="60" as="geometry" /></mxCell><mxCell id="p1" value="Property: KNIFE" style="rounded=1;whiteSpace=wrap;html=1;" vertex="1" parent="1"><mxGeometry x="100" y="240" width="120" height="60" as="geometry" /></mxCell><mxCell id="s1" value="Stream: KNIFE Web" style="rounded=1;whiteSpace=wrap;html=1;" vertex="1" parent="1"><mxGeometry x="300" y="240" width="120" height="60" as="geometry" /></mxCell><mxCell id="g1" value="GTM Container: KNIFE" style="rounded=1;whiteSpace=wrap;html=1;" vertex="1" parent="1"><mxGeometry x="500" y="240" width="120" height="60" as="geometry" /></mxCell><mxCell id="p2" value="Property: LetItGrow" style="rounded=1;whiteSpace=wrap;html=1;" vertex="1" parent="1"><mxGeometry x="100" y="360" width="120" height="60" as="geometry" /></mxCell><mxCell id="s2" value="Stream: LetItGrow Web" style="rounded=1;whiteSpace=wrap;html=1;" vertex="1" parent="1"><mxGeometry x="300" y="360" width="120" height="60" as="geometry" /></mxCell><mxCell id="g2" value="GTM Container: LetItGrow" style="rounded=1;whiteSpace=wrap;html=1;" vertex="1" parent="1"><mxGeometry x="500" y="360" width="120" height="60" as="geometry" /></mxCell><mxCell id="p3" value="Property: LookAndRepeat" style="rounded=1;whiteSpace=wrap;html=1;" vertex="1" parent="1"><mxGeometry x="100" y="480" width="120" height="60" as="geometry" /></mxCell><mxCell id="s3" value="Stream: LookAndRepeat Web" style="rounded=1;whiteSpace=wrap;html=1;" vertex="1" parent="1"><mxGeometry x="300" y="480" width="120" height="60" as="geometry" /></mxCell><mxCell id="g3" value="GTM Container: LookAndRepeat" style="rounded=1;whiteSpace=wrap;html=1;" vertex="1" parent="1"><mxGeometry x="500" y="480" width="120" height="60" as="geometry" /></mxCell></root></mxGraphModel></diagram></mxfile>